<?xml version="1.0" encoding="utf-8"?>
<!-- Generator: Adobe Illustrator 16.0.2, SVG Export Plug-In . SVG Version: 6.00 Build 0)  -->
<!DOCTYPE svg PUBLIC "-//W3C//DTD SVG 1.1//EN" "http://www.w3.org/Graphics/SVG/1.1/DTD/svg11.dtd">
<svg version="1.1" id="Layer_1" xmlns="http://www.w3.org/2000/svg" xmlns:xlink="http://www.w3.org/1999/xlink" x="0px" y="0px"
	 width="216px" height="82px" viewBox="0 0 216 82" enable-background="new 0 0 216 82" xml:space="preserve">
<g id="_x23_00a7d0ff">
	<path fill="#18A0C3" d="M3.272,2.099C3.63,1.975,4.009,1.926,4.386,1.928c4.647,0.004,9.293-0.003,13.94,0.003
		c0.854,0.01,1.723,0.397,2.219,1.109c0.397,0.557,0.529,1.255,0.521,1.928c-0.002,3.904-0.001,7.807,0,11.712
		c0.008,0.772-0.204,1.576-0.748,2.144c-0.547,0.581-1.362,0.85-2.149,0.837c-4.693-0.009-9.387,0.015-14.08-0.012
		c-1.37-0.024-2.557-1.205-2.583-2.576c-0.018-4.136-0.004-8.27-0.005-12.404C1.49,3.555,2.189,2.443,3.272,2.099z"/>
	<path fill="#18A0C3" d="M24.085,9.118C34.662,9.117,45.238,9.12,55.813,9.117c1.778-0.04,3.576,0.279,5.19,1.039
		c1.841,0.858,3.395,2.313,4.352,4.105c0.842,1.558,1.259,3.329,1.289,5.093c0,12.002,0,24.003,0,36.006
		c-0.008,1.193,0.056,2.398-0.169,3.577c-0.371,2.263-1.481,4.428-3.224,5.936c-1.87,1.646-4.372,2.463-6.841,2.499
		c-12.25,0-24.501,0-36.751,0c-1.137-0.008-2.28,0.052-3.405-0.145c-2.389-0.36-4.68-1.544-6.224-3.424
		c-1.619-1.926-2.364-4.47-2.363-6.959c0-11.387,0-22.775,0-34.163c4.543-0.001,9.086,0.001,13.628-0.001
		c0.824-0.004,1.67-0.34,2.185-1c0.458-0.568,0.617-1.318,0.604-2.035C24.084,16.134,24.085,12.625,24.085,9.118 M29.014,19.071
		c-0.834,0.601-1.274,1.64-1.278,2.652c-0.001,5.386,0.001,10.774-0.001,16.161c-0.019,0.983,0.358,2,1.129,2.635
		c0.727,0.619,1.712,0.819,2.645,0.82c5.271-0.001,10.54,0,15.811,0c-0.007,5.135,0.019,10.269-0.013,15.404
		c-4.115-0.019-8.23-0.002-12.344-0.01c0.001-2.434-0.003-4.869,0.003-7.302c-0.002-0.543,0.041-1.111-0.205-1.609
		c-0.408-0.881-1.279-1.464-2.194-1.716c-1.255-0.335-2.687-0.156-3.738,0.641c-0.653,0.485-1.116,1.264-1.091,2.094
		c-0.004,3.66,0.001,7.321-0.002,10.979c-0.013,0.982,0.366,1.999,1.14,2.631c0.731,0.614,1.717,0.809,2.649,0.809
		c8.692-0.006,17.384,0,26.076-0.004c0.815-0.012,1.657-0.188,2.332-0.668c0.837-0.586,1.305-1.613,1.305-2.623
		c-0.003-7.312,0-14.621-0.001-21.935c-0.021-0.934-0.442-1.87-1.18-2.453c-0.692-0.545-1.59-0.748-2.455-0.761
		c-7.549-0.008-15.099,0.013-22.646-0.01c0.025-3.304-0.014-6.608,0.019-9.912c6.349,0.028,12.697-0.013,19.046,0.021
		c-0.015,1.006-0.019,2.016-0.003,3.022c0.006,0.592,0.263,1.163,0.664,1.594c1.207,1.289,3.28,1.509,4.839,0.776
		c0.915-0.427,1.714-1.307,1.715-2.362c0.005-1.975-0.006-3.952,0.002-5.927c0.042-0.804-0.138-1.633-0.619-2.29
		c-0.646-0.919-1.798-1.329-2.886-1.346c-8.738-0.006-17.476,0.001-26.212-0.004C30.644,18.367,29.733,18.546,29.014,19.071z"/>
</g>
<g id="_x23_ffffffff">
	<path fill="#FFFFFF" d="M29.014,19.071c0.719-0.524,1.63-0.704,2.506-0.692c8.736,0.006,17.474-0.001,26.211,0.004
		c1.088,0.018,2.24,0.427,2.886,1.346c0.482,0.657,0.661,1.487,0.619,2.291c-0.009,1.976,0.001,3.952-0.002,5.928
		c-0.001,1.054-0.801,1.934-1.715,2.361c-1.559,0.732-3.633,0.513-4.839-0.776c-0.401-0.43-0.657-1.001-0.664-1.594
		c-0.015-1.006-0.012-2.016,0.003-3.022c-6.349-0.032-12.697,0.007-19.046-0.021c-0.032,3.304,0.006,6.607-0.019,9.912
		c7.547,0.022,15.097,0.002,22.646,0.011c0.865,0.012,1.763,0.214,2.455,0.761c0.738,0.583,1.159,1.52,1.18,2.452
		c0.001,7.313-0.003,14.623,0.001,21.935c0,1.011-0.469,2.037-1.306,2.623c-0.674,0.481-1.517,0.656-2.332,0.67
		c-8.692,0.002-17.384-0.004-26.076,0.002c-0.932,0-1.918-0.192-2.648-0.809c-0.773-0.632-1.153-1.648-1.14-2.631
		c0.003-3.658-0.002-7.319,0.002-10.978c-0.025-0.83,0.437-1.61,1.091-2.096c1.05-0.797,2.482-0.976,3.737-0.641
		c0.914,0.254,1.786,0.835,2.194,1.716c0.246,0.498,0.203,1.068,0.204,1.609c-0.006,2.435-0.001,4.868-0.002,7.302
		c4.114,0.01,8.229-0.009,12.345,0.01c0.031-5.136,0.005-10.27,0.013-15.404c-5.271,0-10.54-0.001-15.811,0
		c-0.933-0.001-1.917-0.201-2.645-0.819c-0.771-0.636-1.148-1.652-1.13-2.636c0.003-5.386,0-10.774,0.002-16.161
		C27.74,20.71,28.18,19.671,29.014,19.071z"/>
</g>
<path fill="#21398F" stroke="#21398F" stroke-width="2" stroke-miterlimit="10" d="M73.045,23.829
	c1.568-0.089,3.146-0.01,4.719-0.039c0.212,0.002,0.557-0.01,0.572,0.283c0.04,1.638,0.012,3.279,0.014,4.917
	c0.065,0.36-0.317,0.45-0.591,0.418c-1.532-0.015-3.066,0.021-4.597-0.017c-0.294,0.011-0.323-0.336-0.313-0.55
	c0.002-1.486,0.002-2.973,0-4.458C72.879,24.204,72.796,23.876,73.045,23.829z"/>
<path fill="#21398F" stroke="#21398F" stroke-width="2" stroke-miterlimit="10" d="M190.866,23.96
	c0.093-0.231,0.393-0.142,0.587-0.171c1.531,0.018,3.065-0.022,4.596,0.019c0.291,0.018,0.266,0.37,0.276,0.576
	c-0.009,4.791,0.005,9.583-0.007,14.375c1.63-1.935,4-3.25,6.532-3.483c2.557-0.236,5.32,0.263,7.327,1.96
	c1.726,1.413,2.605,3.591,2.952,5.744c0.316,1.838,0.224,3.708,0.238,5.564c0,4.743-0.002,9.487,0.003,14.23
	c-0.004,0.208,0.002,0.557-0.29,0.557c-1.583,0.038-3.166,0.01-4.751,0.014c-0.262,0.052-0.515-0.139-0.461-0.42
	c-0.018-5.806,0.015-11.611-0.016-17.418c-0.063-1.565-0.383-3.271-1.555-4.401c-1.133-1.109-2.815-1.361-4.334-1.274
	c-2.277,0.096-4.427,1.442-5.623,3.357c-0.047,6.582,0,13.17-0.022,19.752c0.033,0.24-0.163,0.437-0.405,0.404
	c-1.583,0.004-3.169,0.014-4.752-0.008c-0.317,0.034-0.364-0.327-0.345-0.559c0.004-12.499,0.002-25.001,0.002-37.502
	C190.83,24.84,190.771,24.392,190.866,23.96z"/>
<path fill="#21398F" stroke="#21398F" stroke-width="2" stroke-miterlimit="10" d="M116.418,29.569
	c-0.037-0.268,0.239-0.394,0.464-0.364c1.532-0.006,3.066-0.008,4.602,0c0.215-0.031,0.459,0.116,0.44,0.355
	c0.022,2.055,0.001,4.109,0.009,6.164c1.577,0.005,3.152-0.012,4.729,0.005c0.291-0.038,0.395,0.275,0.364,0.514
	c-0.008,1.136,0.024,2.274-0.014,3.412c0.011,0.248-0.269,0.34-0.469,0.311c-1.538,0.007-3.074,0-4.611,0.001
	c-0.001,5.427,0.002,10.854-0.001,16.282c0.011,0.7,0.086,1.447,0.484,2.047c0.479,0.689,1.358,0.979,2.172,0.939
	c0.614-0.002,1.195-0.212,1.789-0.337c0.3,0.091,0.268,0.442,0.341,0.688c0.169,1.017,0.425,2.02,0.558,3.04
	c-0.185,0.324-0.577,0.455-0.889,0.62c-1.651,0.688-3.527,0.806-5.256,0.364c-1.657-0.418-3.161-1.544-3.876-3.117
	c-0.941-1.963-0.847-4.194-0.845-6.313c0.001-4.739-0.002-9.479,0.001-14.214c-1.274-0.003-2.548,0.007-3.823-0.003
	c-0.199,0.028-0.473-0.065-0.445-0.313c-0.025-1.19-0.018-2.382-0.004-3.571c-0.053-0.277,0.23-0.372,0.449-0.354
	c1.271-0.005,2.542-0.004,3.813,0.004C116.427,33.677,116.393,31.623,116.418,29.569z"/>
<path fill="#21398F" stroke="#21398F" stroke-width="2" stroke-miterlimit="10" d="M90.291,37.071
	c2.264-1.543,5.099-1.981,7.788-1.82c2.496,0.135,5.048,0.932,6.893,2.68c1.727,1.561,2.828,3.979,2.418,6.317
	c-1.626,0.077-3.257,0.026-4.887,0.026c-0.344,0.035-0.339-0.375-0.364-0.604c-0.082-1.304-0.951-2.428-1.994-3.146
	c-1.243-0.844-2.826-0.936-4.276-0.769c-1.065,0.116-2.16,0.516-2.86,1.363c-0.808,0.884-1.037,2.213-0.641,3.335
	c0.256,0.722,0.858,1.274,1.539,1.6c1.813,0.875,3.839,1.092,5.757,1.641c2.024,0.57,4.049,1.306,5.745,2.581
	c1.181,0.882,2.055,2.174,2.374,3.62c0.537,2.388-0.107,5.068-1.859,6.814c-1.917,2.001-4.7,2.926-7.412,3.112
	c-2.863,0.19-5.889-0.164-8.375-1.69c-1.943-1.229-3.573-3.134-4.051-5.425c-0.13-0.682-0.231-1.396-0.099-2.086
	c0.029-0.254,0.33-0.236,0.523-0.24c1.432,0.006,2.863,0.002,4.295,0.002c0.16-0.002,0.455,0.012,0.437,0.246
	c0.079,1.153,0.398,2.365,1.282,3.172c1.48,1.354,3.605,1.742,5.552,1.567c1.427-0.101,2.957-0.582,3.844-1.775
	c0.992-1.35,0.583-3.445-0.816-4.357c-2.005-1.315-4.464-1.506-6.707-2.197c-2.077-0.634-4.186-1.442-5.812-2.93
	c-1.705-1.563-2.235-4.094-1.722-6.297C87.291,39.839,88.648,38.186,90.291,37.071z"/>
<path fill="#21398F" stroke="#21398F" stroke-width="2" stroke-miterlimit="10" d="M138.534,37.14
	c1.801-1.277,4.007-1.956,6.214-1.917c2.544,0.007,5.202,0.611,7.204,2.261c1.917,1.582,3.106,3.903,3.625,6.306
	c0.52,2.236,0.377,4.541,0.385,6.815c0.022,0.297-0.282,0.402-0.524,0.37c-5.683,0-11.364-0.002-17.044,0
	c0.072,2.366,0.722,4.837,2.39,6.589c0.939,1.034,2.281,1.652,3.664,1.787c2.807,0.251,5.793-0.4,7.987-2.237
	c0.228-0.156,0.444-0.472,0.758-0.319c0.721,1.142,1.413,2.303,2.084,3.476c-1.422,1.52-3.363,2.473-5.339,3.05
	c-2.512,0.638-5.183,0.751-7.722,0.218c-2.472-0.523-4.75-1.908-6.331-3.884c-1.894-2.28-2.849-5.221-3.042-8.149
	c-0.147-2.669-0.096-5.419,0.834-7.959C134.593,40.98,136.319,38.717,138.534,37.14 M141.248,41.027
	c-1.528,1.422-2.374,3.442-2.659,5.483c3.96-0.004,7.921,0,11.879-0.002c0.066-1.932-0.444-3.981-1.838-5.384
	c-1.149-1.181-2.895-1.533-4.485-1.416C143.061,39.788,142.039,40.292,141.248,41.027z"/>
<path fill="#21398F" stroke="#21398F" stroke-width="2" stroke-miterlimit="10" d="M165.356,38.155
	c1.822-1.752,4.313-2.667,6.805-2.871c2.714-0.242,5.583,0.168,7.911,1.663c2.33,1.466,4.088,3.931,4.405,6.7
	c0.042,0.628,0.204,1.307-0.044,1.907c-0.208,0.131-0.469,0.067-0.695,0.088c-1.187-0.007-2.373-0.007-3.558,0
	c-0.221-0.022-0.512,0.051-0.655-0.159c-0.097-0.485-0.074-0.986-0.188-1.468c-0.508-2.223-2.51-4.014-4.777-4.267
	c-1.814-0.2-3.834,0.084-5.224,1.362c-1.063,0.984-1.648,2.369-2.064,3.732c-0.605,2.063-0.585,4.238-0.501,6.368
	c0.122,2.051,0.607,4.139,1.754,5.869c0.733,1.105,1.925,1.856,3.213,2.132c1.534,0.318,3.202,0.287,4.638-0.396
	c1.228-0.599,2.366-1.56,2.854-2.869c0.205-0.501,0.194-1.048,0.293-1.571c0.082-0.273,0.443-0.168,0.659-0.2
	c1.417,0.032,2.839-0.05,4.255,0.048c0.27,1.268-0.082,2.594-0.606,3.751c-1.029,2.082-2.889,3.657-4.931,4.701
	c-2.753,1.371-6.002,1.484-8.954,0.759c-2.305-0.566-4.414-1.926-5.819-3.85c-1.246-1.635-2.089-3.564-2.516-5.573
	c-0.467-2.037-0.434-4.144-0.37-6.22C161.428,44.236,162.756,40.646,165.356,38.155z"/>
<path fill="#21398F" stroke="#21398F" stroke-width="2" stroke-miterlimit="10" d="M72.918,35.823
	c0.203-0.135,0.462-0.086,0.693-0.104c1.487,0.022,2.975-0.024,4.461,0.02c0.253,0.018,0.293,0.288,0.281,0.49
	c0.006,8.8-0.004,17.601,0.006,26.398c-0.026,0.208,0.045,0.47-0.112,0.638c-0.192,0.115-0.431,0.069-0.639,0.089
	c-1.481-0.02-2.965,0.019-4.445-0.018c-0.298,0.01-0.323-0.347-0.313-0.563c0.003-8.598,0.002-17.196,0-25.796
	C72.864,36.594,72.797,36.194,72.918,35.823z"/>
<path fill="#21398F" d="M7.487,74.026c0.75-0.811,1.978-0.939,3.004-0.699c0.998,0.224,1.829,1.146,1.794,2.193
	c-0.331,0.002-0.661,0-0.992,0.002c-0.063-0.323-0.094-0.68-0.33-0.934c-0.515-0.616-1.452-0.659-2.165-0.418
	c-0.745,0.223-1.064,1.32-0.428,1.833c0.961,0.757,2.352,0.622,3.27,1.47c0.931,0.722,0.918,2.343-0.096,2.986
	c-1.256,0.818-3.102,0.703-4.209-0.325c-0.41-0.364-0.544-0.915-0.575-1.44c0.33-0.004,0.663-0.006,0.992-0.006
	c0.072,0.365,0.142,0.775,0.457,1.021c0.684,0.555,1.718,0.603,2.496,0.222c0.555-0.267,0.749-1.021,0.424-1.537
	c-0.3-0.483-0.88-0.656-1.396-0.805c-0.822-0.208-1.694-0.466-2.294-1.105C6.816,75.819,6.849,74.673,7.487,74.026z"/>
<path fill="#21398F" d="M17.81,73.351c0.351-0.014,0.7-0.018,1.051-0.018c0.001,2.511-0.006,5.024,0.003,7.535
	c-0.348,0.006-0.695,0.008-1.042,0.012C17.813,78.37,17.841,75.859,17.81,73.351z"/>
<path fill="#21398F" d="M25.125,74.026c0.747-0.807,1.97-0.938,2.994-0.703c1.002,0.224,1.842,1.144,1.804,2.199
	c-0.331,0-0.663-0.002-0.993-0.002c-0.061-0.325-0.093-0.682-0.329-0.936c-0.544-0.634-1.537-0.672-2.265-0.37
	c-0.722,0.289-0.926,1.408-0.248,1.854c0.995,0.689,2.372,0.589,3.266,1.468c0.63,0.558,0.79,1.552,0.403,2.293
	c-0.388,0.686-1.175,1.038-1.932,1.125c-1.071,0.145-2.275-0.141-3-0.986c-0.312-0.353-0.388-0.828-0.418-1.276
	c0.329-0.002,0.658-0.002,0.988-0.002c0.066,0.404,0.174,0.845,0.541,1.086c0.687,0.485,1.663,0.523,2.41,0.154
	c0.586-0.279,0.762-1.1,0.375-1.614c-0.367-0.487-0.996-0.63-1.551-0.783c-0.728-0.184-1.47-0.445-2.021-0.977
	C24.464,75.901,24.464,74.698,25.125,74.026z"/>
<path fill="#21398F" d="M34.665,73.337c1.953,0,3.903,0,5.855,0c0,0.271,0,0.543,0,0.814c-0.802,0-1.605-0.002-2.408,0
	c0.004,2.237-0.01,4.476,0.006,6.715c-0.351,0.012-0.704,0.012-1.053-0.006c0.019-2.235,0.002-4.472,0.007-6.709
	c-0.802-0.002-1.605,0-2.408,0C34.665,73.88,34.665,73.608,34.665,73.337z"/>
<path fill="#21398F" d="M45.614,73.337c1.648-0.002,3.297,0,4.945-0.002c0.001,0.27,0.004,0.539,0.007,0.811
	c-1.31,0.014-2.621,0.002-3.933,0.006c0,0.811,0,1.617,0,2.427c1.148,0,2.296,0,3.444,0c0.003,0.27,0.006,0.537,0.011,0.807
	c-1.151,0.022-2.303,0.004-3.455,0.01c0,0.89-0.002,1.779,0.004,2.671c1.326-0.006,2.653-0.002,3.98-0.002
	c-0.001,0.27-0.001,0.541,0,0.813c-1.668,0.002-3.336,0.002-5.004,0C45.614,78.363,45.614,75.85,45.614,73.337z"/>
<path fill="#21398F" d="M55.806,73.337c0.438,0,0.876-0.002,1.315,0c0.797,2.025,1.583,4.054,2.388,6.077
	c0.863-2.001,1.601-4.058,2.417-6.077c0.442-0.002,0.883,0,1.327,0c0.001,2.513,0.001,5.026,0,7.539c-0.347,0-0.693,0-1.039,0
	c-0.015-1.999,0.007-4,0.097-5.999c-0.858,1.983-1.613,4.014-2.458,6.005c-0.224,0-0.446-0.002-0.668,0
	c-0.828-1.993-1.62-4.006-2.43-6.009c0.039,2.003,0.123,4.004,0.086,6.007c-0.346-0.002-0.691-0.002-1.036-0.002
	C55.805,78.363,55.805,75.85,55.806,73.337z"/>
<path fill="#21398F" d="M71.219,73.331c0.293,0.002,0.589,0.004,0.883,0.006c0.959,2.513,1.914,5.026,2.869,7.539
	c-0.354,0-0.708,0-1.062,0.002c-0.238-0.649-0.468-1.3-0.706-1.945c-1.043,0-2.088,0-3.131,0c-0.242,0.647-0.473,1.304-0.723,1.949
	c-0.35-0.004-0.7-0.006-1.049-0.006C69.266,78.357,70.238,75.842,71.219,73.331 M70.395,78.059c0.833,0.002,1.665,0.002,2.498,0
	c-0.413-1.136-0.821-2.274-1.238-3.41C71.23,75.784,70.815,76.923,70.395,78.059z"/>
<path fill="#21398F" d="M80.871,73.438c1.147-0.414,2.647-0.288,3.461,0.711c0.339,0.376,0.453,0.88,0.489,1.369
	c-0.333,0.002-0.666,0.004-0.996,0.004c-0.063-0.402-0.16-0.838-0.495-1.104c-0.555-0.454-1.37-0.468-2.025-0.244
	c-0.639,0.218-0.987,1.074-0.578,1.643c0.395,0.502,1.053,0.658,1.637,0.828c0.76,0.196,1.554,0.483,2.071,1.104
	c0.667,0.798,0.521,2.159-0.381,2.722c-1.265,0.811-3.107,0.682-4.212-0.354c-0.399-0.362-0.525-0.905-0.549-1.423
	c0.331-0.004,0.66-0.004,0.991-0.002c0.064,0.354,0.129,0.753,0.428,0.995c0.677,0.57,1.713,0.628,2.497,0.256
	c0.611-0.277,0.791-1.136,0.378-1.648c-0.48-0.585-1.285-0.668-1.962-0.882c-0.83-0.252-1.768-0.702-2.038-1.602
	C79.271,74.823,79.932,73.774,80.871,73.438z"/>
<path fill="#21398F" d="M96.964,73.329c1.652,0.018,3.305,0.002,4.958,0.008c-0.001,0.271-0.001,0.543-0.001,0.816
	c-1.309-0.004-2.616-0.002-3.924-0.002c-0.001,0.811-0.001,1.617,0,2.427c1.147,0,2.295-0.002,3.444,0
	c-0.001,0.271-0.001,0.543,0,0.818c-1.148,0-2.297-0.002-3.444,0c-0.003,0.888,0,1.775-0.001,2.663c1.326,0.006,2.654,0,3.984,0.004
	c-0.001,0.271-0.001,0.541-0.001,0.814c-1.673,0.002-3.347,0-5.021,0C96.96,78.361,96.945,75.844,96.964,73.329z"/>
<path fill="#21398F" d="M107.146,73.337c0.442,0,0.886,0,1.329,0c0.798,2.029,1.591,4.065,2.392,6.097
	c0.839-2.019,1.604-4.063,2.41-6.093c0.438-0.004,0.874-0.006,1.315-0.008c0.007,2.515,0.001,5.03,0.002,7.543
	c-0.347,0-0.691,0-1.037,0c-0.024-2.024,0.023-4.044,0.116-6.066c-0.819,2.021-1.636,4.04-2.447,6.064
	c-0.231,0-0.465,0.002-0.696,0.006c-0.819-1.995-1.593-4.012-2.437-5.997c0.085,1.999,0.104,3.998,0.091,5.997
	c-0.349-0.004-0.696-0.006-1.042-0.012C107.152,78.357,107.145,75.848,107.146,73.337z"/>
<path fill="#21398F" d="M120.486,73.337c0.977,0,1.95-0.004,2.928,0c0.592,0,1.212,0.123,1.689,0.495
	c1.188,0.882,1.08,3.02-0.262,3.703c-1.026,0.521-2.214,0.26-3.315,0.321c-0.004,1.007,0,2.014-0.001,3.02c-0.348,0-0.695,0-1.04,0
	C120.486,78.363,120.486,75.85,120.486,73.337 M121.529,74.149c-0.01,0.961,0.001,1.924-0.009,2.887
	c0.816-0.023,1.651,0.091,2.456-0.079c1.212-0.353,1.197-2.364-0.004-2.723C123.173,74.057,122.342,74.193,121.529,74.149z"/>
<path fill="#21398F" d="M131.056,73.349c0.911-0.027,1.822-0.008,2.736-0.014c0.64,0,1.324,0.095,1.847,0.503
	c0.67,0.506,0.843,1.467,0.62,2.243c-0.147,0.504-0.586,0.824-0.998,1.105c0.343,0.173,0.7,0.385,0.861,0.757
	c0.458,0.926-0.109,2.087,0.595,2.933c-0.39,0-0.777,0-1.164,0.004c-0.478-0.778-0.084-1.735-0.388-2.554
	c-0.202-0.474-0.72-0.743-1.222-0.709c-0.615-0.011-1.227,0.004-1.839,0c0.001,1.081-0.007,2.165,0.005,3.247
	c-0.349,0.01-0.697,0.014-1.042,0.014C131.059,78.37,131.081,75.859,131.056,73.349 M132.104,74.153
	c-0.003,0.88,0,1.762-0.003,2.644c0.803-0.028,1.626,0.095,2.412-0.104c1.08-0.291,1.066-2.106,0.021-2.437
	C133.742,74.053,132.912,74.189,132.104,74.153z"/>
<path fill="#21398F" d="M142.055,73.335c1.648,0.002,3.297,0.002,4.947,0.002c-0.003,0.271-0.005,0.543-0.005,0.816
	c-1.303-0.004-2.604-0.002-3.904,0c-0.003,0.809-0.003,1.615,0,2.425c1.146,0,2.296,0,3.444,0c-0.002,0.271-0.005,0.545-0.002,0.818
	c-1.148-0.002-2.296-0.002-3.444,0c-0.002,0.884,0.005,1.771-0.007,2.657c1.324,0.021,2.647,0.004,3.972,0.01
	c-0.002,0.271-0.002,0.541,0,0.814c-1.667,0.002-3.335,0.002-5.003,0C142.054,78.363,142.051,75.85,142.055,73.335z"/>
<path fill="#21398F" d="M152.557,73.999c0.769-0.793,1.995-0.912,3.02-0.664c0.981,0.242,1.776,1.144,1.771,2.178
	c-0.334,0.006-0.667,0.01-0.998,0.012c-0.069-0.343-0.115-0.717-0.368-0.979c-0.514-0.565-1.39-0.603-2.077-0.398
	c-0.628,0.183-1.037,0.947-0.727,1.55c0.278,0.499,0.867,0.689,1.38,0.854c0.818,0.226,1.699,0.446,2.305,1.086
	c0.754,0.757,0.676,2.184-0.229,2.796c-1.249,0.844-3.095,0.737-4.225-0.271c-0.425-0.365-0.57-0.93-0.6-1.467
	c0.33-0.004,0.659-0.004,0.991-0.004c0.071,0.379,0.153,0.799,0.486,1.043c0.675,0.519,1.662,0.574,2.424,0.218
	c0.598-0.254,0.816-1.07,0.443-1.594c-0.365-0.526-1.031-0.675-1.607-0.832c-0.771-0.194-1.568-0.485-2.104-1.098
	C151.854,75.748,151.923,74.627,152.557,73.999z"/>
<path fill="#21398F" d="M164.905,73.337c0.296-0.002,0.592-0.002,0.892-0.002c0.96,2.513,1.914,5.028,2.869,7.541
	c-0.356,0-0.709,0-1.063,0c-0.229-0.642-0.476-1.275-0.678-1.924c-1.056-0.041-2.107-0.014-3.159-0.018
	c-0.244,0.651-0.466,1.31-0.73,1.953c-0.349-0.01-0.698-0.012-1.043-0.012C162.961,78.361,163.934,75.85,164.905,73.337
	 M165.322,74.731c-0.423,1.103-0.822,2.218-1.232,3.329c0.831,0,1.665,0,2.498-0.002C166.152,76.957,165.842,75.798,165.322,74.731z
	"/>
<path fill="#21398F" d="M173.402,73.337c0.929,0,1.858-0.004,2.788,0c0.664,0,1.381,0.125,1.89,0.587
	c0.579,0.522,0.718,1.4,0.529,2.13c-0.147,0.521-0.592,0.872-1.045,1.123c0.3,0.154,0.635,0.306,0.811,0.616
	c0.604,0.938-0.052,2.189,0.677,3.083c-0.39-0.037-0.835,0.098-1.188-0.081c-0.371-0.601-0.175-1.354-0.249-2.021
	c-0.023-0.585-0.516-1.124-1.111-1.144c-0.687-0.038-1.376-0.004-2.062-0.014c0,1.087,0,2.173,0,3.261
	c-0.349-0.002-0.694-0.002-1.04-0.002C173.402,78.363,173.402,75.85,173.402,73.337 M174.442,74.151
	c-0.003,0.882-0.001,1.768,0,2.649c0.822-0.04,1.67,0.106,2.472-0.129c1.067-0.354,0.966-2.218-0.144-2.445
	C176.004,74.07,175.216,74.187,174.442,74.151z"/>
<path fill="#21398F" d="M184.446,73.337c0.345-0.002,0.691,0,1.038,0c0,2.513,0,5.026,0,7.539c-0.347,0-0.693,0-1.038,0
	C184.445,78.363,184.445,75.85,184.446,73.337z"/>
<path fill="#21398F" d="M193.524,73.337c0.294-0.002,0.591-0.002,0.89,0c0.958,2.511,1.914,5.026,2.868,7.539
	c-0.356,0-0.709,0-1.063,0c-0.229-0.642-0.475-1.279-0.679-1.928c-1.056-0.035-2.11-0.012-3.161-0.012
	c-0.238,0.651-0.465,1.306-0.722,1.949c-0.352-0.006-0.702-0.01-1.05-0.01C191.58,78.363,192.547,75.848,193.524,73.337
	 M193.911,74.813c-0.42,1.075-0.798,2.167-1.205,3.247c0.832,0,1.664,0,2.497,0c-0.395-1.088-0.776-2.178-1.187-3.26
	C193.989,74.804,193.938,74.81,193.911,74.813z"/>
<path fill="#21398F" d="M202.088,73.335c0.342,0,0.688,0.002,1.034,0.002c0,2.513,0,5.026,0,7.539c-0.348,0-0.693,0-1.037,0
	C202.085,78.363,202.08,75.85,202.088,73.335z"/>
<path fill="#21398F" d="M209.951,73.575c1.217-0.616,2.964-0.484,3.822,0.671c0.295,0.357,0.373,0.826,0.413,1.274
	c-0.333,0.002-0.666,0.002-0.993,0.002c-0.074-0.362-0.129-0.761-0.414-1.026c-0.537-0.527-1.407-0.553-2.086-0.327
	c-0.628,0.208-0.996,1.017-0.634,1.6c0.372,0.532,1.048,0.693,1.638,0.869c0.774,0.196,1.589,0.483,2.111,1.126
	c0.658,0.792,0.513,2.136-0.376,2.698c-1.232,0.799-3.015,0.697-4.133-0.258c-0.451-0.368-0.627-0.95-0.643-1.508
	c0.327-0.006,0.656-0.008,0.987-0.012c0.069,0.365,0.141,0.775,0.453,1.022c0.687,0.557,1.726,0.612,2.504,0.22
	c0.584-0.281,0.759-1.1,0.369-1.61c-0.433-0.553-1.168-0.668-1.799-0.851c-0.833-0.229-1.745-0.616-2.139-1.438
	C208.614,75.124,209.078,74.009,209.951,73.575z"/>
</svg>
